<?xml version="1.0" encoding="UTF-8"?>
<svg id="Layer_2" data-name="Layer 2" xmlns="http://www.w3.org/2000/svg" xmlns:xlink="http://www.w3.org/1999/xlink" viewBox="0 0 276.24 372.18">
  <defs>
    <style>
      .cls-1, .cls-2 {
        stroke: #231f20;
        stroke-miterlimit: 10;
        stroke-width: 3.98px;
      }

      .cls-1, .cls-3 {
        fill: none;
      }

      .cls-4 {
        font-size: 29.15px;
      }

      .cls-4, .cls-5, .cls-6 {
        fill: #fff;
      }

      .cls-4, .cls-6 {
        font-family: Optima-Bold, Optima;
        font-weight: 700;
      }

      .cls-7 {
        fill: url(#New_Gradient_Swatch_4);
        filter: url(#drop-shadow-1);
      }

      .cls-7, .cls-5, .cls-8 {
        stroke-width: 0px;
      }

      .cls-6 {
        font-size: 24.52px;
      }

      .cls-2 {
        fill: #1f6a95;
      }

      .cls-8 {
        fill: #231f20;
      }

      .cls-3 {
        stroke: #fff;
        stroke-width: 3.78px;
      }
    </style>
    <radialGradient id="New_Gradient_Swatch_4" data-name="New Gradient Swatch 4" cx="138.09" cy="184.68" fx="138.09" fy="184.68" r="131.88" gradientUnits="userSpaceOnUse">
      <stop offset="0" stop-color="#fff"/>
      <stop offset="1" stop-color="#1f6a95"/>
    </radialGradient>
    <filter id="drop-shadow-1" filterUnits="userSpaceOnUse">
      <feOffset dx="4.77" dy="9.54"/>
      <feGaussianBlur result="blur" stdDeviation="6.63"/>
      <feFlood flood-color="#231f20" flood-opacity=".75"/>
      <feComposite in2="blur" operator="in"/>
      <feComposite in="SourceGraphic"/>
    </filter>
  </defs>
  <g id="Layer_1-2" data-name="Layer 1">
    <ellipse class="cls-2" cx="138.12" cy="185.13" rx="136.13" ry="183.14"/>
    <ellipse class="cls-7" cx="138.09" cy="184.68" rx="111.26" ry="149.68"/>
    <text class="cls-6" transform="translate(192.36 322.48) rotate(147.07)"><tspan x="0" y="0"> </tspan></text>
    <text class="cls-6" transform="translate(180.28 329.79) rotate(155.03)"><tspan x="0" y="0"> </tspan></text>
    <text class="cls-6" transform="translate(167.35 335.31) rotate(163.62)"><tspan x="0" y="0"> </tspan></text>
    <text class="cls-6" transform="translate(153.78 338.79) rotate(172.63)"><tspan x="0" y="0"> </tspan></text>
    <text class="cls-6" transform="translate(139.81 340.09) rotate(-178.25)"><tspan x="0" y="0"> </tspan></text>
    <text class="cls-6" transform="translate(125.84 339.16) rotate(-169.13)"><tspan x="0" y="0"> </tspan></text>
    <text class="cls-6" transform="translate(112.15 336.03) rotate(-160.24)"><tspan x="0" y="0"> </tspan></text>
    <text class="cls-6" transform="translate(99.08 330.82) rotate(-151.88)"><tspan x="0" y="0"> </tspan></text>
    <text class="cls-6" transform="translate(86.84 323.78) rotate(-144.21)"><tspan x="0" y="0"> </tspan></text>
    <text class="cls-6" transform="translate(75.58 315.16) rotate(-137.24)"><tspan x="0" y="0"> </tspan></text>
    <text class="cls-6" transform="translate(65.39 305.24) rotate(-130.92)"><tspan x="0" y="0"> </tspan></text>
    <text class="cls-6" transform="translate(56.31 294.24) rotate(-125.16)"><tspan x="0" y="0"> </tspan></text>
    <text class="cls-6" transform="translate(48.28 282.47) rotate(-118.9)"><tspan x="0" y="0">S</tspan></text>
    <text class="cls-6" transform="translate(38.92 265.13) rotate(-111)"><tspan x="0" y="0">O</tspan></text>
    <text class="cls-6" transform="translate(29.5 238.93) rotate(-103.19)"><tspan x="0" y="0">C</tspan></text>
    <text class="cls-6" transform="translate(24.58 215.53) rotate(-97.75)"><tspan x="0" y="0">I</tspan></text>
    <text class="cls-6" transform="translate(22.8 201.29) rotate(-93.04)"><tspan x="0" y="0">E</tspan></text>
    <text class="cls-6" transform="translate(22.03 181.44) rotate(-87.54)"><tspan x="0" y="0">T</tspan></text>
    <text class="cls-6" transform="translate(23.24 160.26) rotate(-81.53)"><tspan x="0" y="0">Y</tspan></text>
    <text class="cls-6" transform="translate(27.04 138.01) rotate(-76.25)"><tspan x="0" y="0"> </tspan></text>
    <text class="cls-6" transform="translate(30.4 124.16) rotate(-69.88)"><tspan x="0" y="0">O</tspan></text>
    <text class="cls-6" transform="translate(40.62 98.27) rotate(-62.06)"><tspan x="0" y="0">F</tspan></text>
    <text class="cls-6" transform="translate(50.33 80.99) rotate(-55.9)"><tspan x="0" y="0"> </tspan></text>
    <text class="cls-6" transform="translate(58.32 69.33) rotate(-48.27)"><tspan x="0" y="0">A</tspan></text>
    <text class="cls-6" transform="translate(74.39 52.1) rotate(-37.31)"><tspan x="0" y="0">C</tspan></text>
    <text class="cls-6" transform="translate(93.37 38.4) rotate(-24.48)"><tspan x="0" y="0">A</tspan></text>
    <text class="cls-6" transform="translate(114.79 29.27) rotate(-9.1)"><tspan x="0" y="0">D</tspan></text>
    <text class="cls-6" transform="translate(140.6 26.34) rotate(5.6)"><tspan x="0" y="0">E</tspan></text>
    <text class="cls-6" transform="translate(159.75 28.41) rotate(20.83)"><tspan x="0" y="0">M</tspan></text>
    <text class="cls-6" transform="translate(186.1 40.04) rotate(33.08)"><tspan x="0" y="0">I</tspan></text>
    <text class="cls-6" transform="translate(197.77 47.82) rotate(42.52)"><tspan x="0" y="0">C</tspan></text>
    <text class="cls-6" transform="translate(214.67 64.46) rotate(50.82)"><tspan x="0" y="0"> </tspan></text>
    <text class="cls-6" transform="translate(223.57 75.45) rotate(58.66)"><tspan x="0" y="0">U</tspan></text>
    <text class="cls-6" transform="translate(236.77 98.36) rotate(67.02)"><tspan x="0" y="0">R</tspan></text>
    <text class="cls-6" transform="translate(245.27 119.11) rotate(74.79)"><tspan x="0" y="0">O</tspan></text>
    <text class="cls-6" transform="translate(251.97 146.18) rotate(81.66)"><tspan x="0" y="0">L</tspan></text>
    <text class="cls-6" transform="translate(254.7 165.82) rotate(88.2)"><tspan x="0" y="0">O</tspan></text>
    <text class="cls-6" transform="translate(255.13 193.67) rotate(95.52)"><tspan x="0" y="0">G</tspan></text>
    <text class="cls-6" transform="translate(251.95 220.09) rotate(101.24)"><tspan x="0" y="0">I</tspan></text>
    <text class="cls-6" transform="translate(248.99 234.13) rotate(106.27)"><tspan x="0" y="0">S</tspan></text>
    <text class="cls-6" transform="translate(243.15 253.05) rotate(112.63)"><tspan x="0" y="0">T</tspan></text>
    <text class="cls-6" transform="translate(234.65 272.38) rotate(119.53)"><tspan x="0" y="0">S</tspan></text>
    <text class="cls-4" transform="translate(101.76 356.71) rotate(18.79)"><tspan x="0" y="0">2</tspan></text>
    <text class="cls-4" transform="translate(121.16 362.99) rotate(5.97)"><tspan x="0" y="0">0</tspan></text>
    <text class="cls-4" transform="translate(141.49 364.77) rotate(-7.09)"><tspan x="0" y="0">1</tspan></text>
    <text class="cls-4" transform="translate(161.64 361.92) rotate(-19.83)"><tspan x="0" y="0">6</tspan></text>
    <path class="cls-8" d="m172.25,240.28h-12.4s-13.05-33.41-13.05-33.41h-32.15l-12.5,33.39-8.5.02,38.59-87.28h2.59l37.43,87.28Zm-27.63-38.46l-14.09-31.22-13.94,31.22h28.03Z"/>
    <g>
      <path class="cls-5" d="m50.41,100.3c1.46-14.18,10.9-27.63,25.7-33.88,13.99-5.9,34.96-2.13,41.29,12.27,5.9,13.42-4.1,14.8-8.49,22.9-3.44,6.35,4.68,18.71,1.38,27.4-6.24,16.43-18.73,19.01-37.36,11.53-16.65-6.68-24.13-24.56-22.52-40.22Z"/>
      <path class="cls-3" d="m84.7,205.19c-8.9,26.16-14.41,61.49,16.86,70.57"/>
      <path class="cls-3" d="m97.35,105.18c16.46,6.6,21.58,21.3,16.12,36.21-5.36,14.64-14.2,29.44-20.57,43.9-1.38,3.14-3.65,8.23-5.26,12.28"/>
      <path class="cls-5" d="m105.63,105.46c6.33,3.52,9.52,9.19,9.52,15.15,0,6.07-6.99,8.38-12.84,10.63"/>
    </g>
    <path class="cls-5" d="m229.32,99.8c-1.46-14.19-10.9-27.64-25.69-33.88-13.99-5.9-34.97-2.13-41.3,12.27-5.9,13.41,4.1,14.79,8.49,22.9,3.44,6.35-4.68,18.71-1.38,27.4,6.24,16.43,18.73,19.01,37.36,11.54,16.65-6.69,24.13-24.56,22.52-40.23Z"/>
    <path class="cls-3" d="m182.38,104.68c-16.46,6.61-21.58,21.3-16.12,36.21,1.5,4.1,4.07,9.32,5.99,13.44"/>
    <path class="cls-5" d="m174.1,104.97c-6.33,3.52-9.52,9.2-9.52,15.15,0,6.08,6.99,8.38,12.84,10.63"/>
    <path class="cls-5" d="m145.33,317.14c-.67,4.66-1.15,9.35-1.64,14.04-.2,1.97-.27,3.98-3.55,3.98-4.34,0-4.04-3.32-4.53-6.24-.83-4.88-1.79-9.75-2.98-14.55-4.28-17.21-32.51-22.2-31.62-39.73.92-18.06,22.74-28.77,38.77-28.77s41.75,12.98,39.15,32.84c-2.26,17.27-30.78,18.82-33.61,38.44Z"/>
    <path class="cls-8" d="m234.03,153.23v57.63c-.17,1.55-.52,3.26-1.04,5.12-.52,1.86-.99,3.52-1.42,4.99-2.68,5.01-6.15,8.63-10.43,10.88-4.27,2.25-9.22,3.37-14.83,3.37-2.68,0-5.4-.26-8.16-.78-5.96-1.81-10.42-4.92-13.4-9.32-2.98-4.4-4.47-9.8-4.47-16.19v-55.69h-10.75v64.49c1.3,6.73,4.62,12.26,9.97,16.58,5.35,4.32,11.4,6.47,18.13,6.47h15.93c6.99-.78,13.03-3.67,18.13-8.68,5.09-5.01,8.33-10.96,9.71-17.87v-61h-7.38Z"/>
    <path class="cls-3" d="m178.16,168.66c2.25,4.49,6.36,11.53,8.67,16.11,11.71,23.25,32.44,78.55-8.67,90.47"/>
    <ellipse class="cls-1" cx="139.75" cy="184.62" rx="111.26" ry="149.68"/>
    <rect class="cls-8" x="175.78" y="166.68" width="4.5" height="10.72"/>
    <path class="cls-8" d="m80.05,233.09c.46-.34.81-.69,1.22-1.1,2.54-2.54,4.32-5,5.31-7.37.99-2.37,1.49-4.81,1.49-7.31,0-3.02-.63-5.71-1.88-8.08-1.25-2.37-3.22-4.29-5.89-5.75l-21.76-9.7c-3.28-2.24-5.76-5.04-7.45-8.4s-2.52-6.94-2.52-10.73c0-3.53.8-6.92,2.4-10.15,1.6-3.23,3.95-5.93,7.06-8.08,2.59-1.64,5.57-2.8,8.94-3.49,3.37-.69,6.95-1.03,10.75-1.03,5.26.78,10.49,2.89,15.67,6.35l-2.72,8.8-1.29.26c-1.3-3.45-3.45-6.15-6.48-8.09-3.02-1.94-6.26-2.91-9.71-2.91-2.42,0-4.66.45-6.73,1.36-2.07.9-3.97,2.35-5.7,4.33-2.25,3.02-3.37,6.21-3.37,9.57,0,5.26,2.55,9.83,7.64,13.71,2.24.95,6.06,2.67,11.46,5.17,5.39,2.5,8.65,3.97,9.78,4.4,3.63,2.07,6.37,4.74,8.22,8.02,1.85,3.28,2.78,6.85,2.78,10.73,0,3.1-.52,6.21-1.55,9.31-2.68,5.61-6.6,9.94-11.78,13-1.4.82-2.78,1.54-4.23,2.14l.02-.67.05-.68.06-.81.05-.74.07-.93.04-.54.07-.56Zm-4.17,6.19c-2.83.79-5.63,1.19-8.66,1.19-7.43,0-14.2-2.31-20.33-6.94l2.2-10.03c2.5,3.51,5.72,6.43,9.65,8.78,3.93,2.35,7.88,3.52,11.85,3.52,2.03,0,3.86-.25,5.49-.75"/>
  </g>
</svg>